<svg width="24" height="24" viewBox="0 0 24 24" fill="none" xmlns="http://www.w3.org/2000/svg">
<rect width="24" height="24" rx="2" fill="#FF7C4F"/>
<path d="M15.8728 8.64527H13.317C12.5903 8.64527 12.0005 8.05662 12.0005 7.32894V6.32207C12.0005 5.03938 10.9609 4 9.67797 4C8.39504 4 7.35547 5.03938 7.35547 6.32207C7.35547 7.60477 8.39504 8.64415 9.67797 8.64415H10.685C11.4117 8.64415 12.0016 9.23392 12.0016 9.96048V12.3599C12.0016 13.0865 11.4117 13.6762 10.685 13.6762H9.67797C8.39504 13.6762 7.35547 14.7156 7.35547 15.9983V17.6779C7.35547 18.9606 8.39504 20 9.67797 20C10.9609 20 12.0005 18.9606 12.0005 17.6779V15.9983V14.9915C12.0005 14.2649 12.5892 13.6751 13.317 13.6751H15.8717C16.2989 13.6751 16.6455 13.3287 16.6455 12.9015V9.41892C16.6466 8.99173 16.3001 8.64527 15.8728 8.64527Z" fill="black"/>
</svg>
